<svg width="1080" height="1080" viewBox="0 0 1080 1080" fill="none" xmlns="http://www.w3.org/2000/svg">
<circle cx="540" cy="459" r="163" stroke="white" stroke-width="12"/>
<path d="M458.399 382.357C407.414 380.536 440.166 330 440.166 330C410.06 344.079 384.226 391.009 375 432.688C375 432.688 404.713 468.156 455.697 461.062C506.682 453.968 546.186 411.407 580.626 396.882C615.066 382.357 636 411.745 636 411.745C636 411.745 636 368.508 580.626 368.508C525.252 368.508 509.383 384.179 458.399 382.357Z" fill="white"/>
<path d="M594.503 615.904C572.574 444.724 594.84 389.124 636 411.701C615.758 371.939 490.862 404.894 469 609.502C499.549 624.35 566.13 622.896 594.503 615.904Z" fill="white"/>
<path d="M367.379 760.059H336.676V706.27H300.172V681.309H403.883V706.27H367.379V760.059ZM414.195 681.191H444.898V759.941H414.195V681.191ZM538.004 720.684C538.004 712.715 533.492 706.27 525.523 706.27H491.891V735.098H525.523C533.492 735.098 538.004 728.594 538.004 720.684ZM461.188 681.309H531.266C552.887 681.016 568.941 699.18 568.766 720.684C568.941 742.07 552.887 760.352 531.266 760.059H461.188V681.309ZM623.199 704.102L612.359 727.363H633.98L623.199 704.102ZM562.672 760.059L604.918 681.309H641.422L683.668 760.059H649.098L642.887 746.582H603.453L597.242 760.059H562.672ZM686.07 681.191H716.773V734.98H778.238V759.941H686.07V681.191Z" fill="white"/>
</svg>
